<svg id="goldengarden" xmlns="http://www.w3.org/2000/svg" width="1399.531" height="278.313" viewBox="0 0 1399.531 278.313">
  <metadata><?xpacket begin="﻿" id="W5M0MpCehiHzreSzNTczkc9d"?>
<x:xmpmeta xmlns:x="adobe:ns:meta/" x:xmptk="Adobe XMP Core 5.6-c142 79.160924, 2017/07/13-01:06:39        ">
   <rdf:RDF xmlns:rdf="http://www.w3.org/1999/02/22-rdf-syntax-ns#">
      <rdf:Description rdf:about=""/>
   </rdf:RDF>
</x:xmpmeta>                 
<?xpacket end="w"?></metadata>
<defs>
    <style>
      .cls-1 {
        fill: #2f7e18;
      }

      .cls-1, .cls-2 {
        fill-rule: evenodd;
      }

      .cls-2 {
        fill: #e69e0c;
      }
    </style>
  </defs>
  <path id="garden" class="cls-1" d="M810,145.056L770.611,173.7q15.461-32.387,21.4-46.631t5.94-21.729a8.057,8.057,0,0,0-2.034-5.94,7.164,7.164,0,0,0-5.29-2.035q-5.7,0-12.776,7.08a268.482,268.482,0,0,0-17.9,20.508q-10.827,13.428-17.334,19.45-14.325,13.183-21.647,18.392t-13.021,5.208a6.784,6.784,0,0,1-5.534-2.6,10.765,10.765,0,0,1-2.116-7q0-8.949,8.382-20.1a103.7,103.7,0,0,1,21.973-21.077,144.248,144.248,0,0,1,27.425-15.951Q780.7,91.184,780.7,80.6q0-7.649-10.417-7.65-14,0-39.225,15.788a176.442,176.442,0,0,0-23.275,16.683,123,123,0,0,0-16.357,16.683,67.327,67.327,0,0,0-9.44,15.3,35.255,35.255,0,0,0-3.011,13.672,57.743,57.743,0,0,0,7,27.262q7,13.269,15.3,13.265,7.649,0,17.171-5.615a129.315,129.315,0,0,0,20.915-16.032q11.389-10.413,26.692-26.692-7.164,17.577-23.437,50.781-3.258,2.769-12.207,10.172t-14.4,12.37a160.692,160.692,0,0,0-11.556,11.8,120.991,120.991,0,0,0-10.824,14q-11.883,18.227-11.882,29.948,0,6.02,4.883,6.022,9.114,0,27.832-19.45t41.5-58.838L810,155.635V145.056Zm4.394-15.3a30.919,30.919,0,0,0-5.7,10.5,47.263,47.263,0,0,0-1.465,12.776,52.078,52.078,0,0,0,4.15,20.427A59.609,59.609,0,0,0,820.9,189.49q5.37,6.188,8.951,6.184,7.485,0,19.043-11.149t35.319-37.516q-9.276,24.414-9.277,37.272,0,8.14,2.686,12.289t9.033,4.15q17.738,0,58.919-45.736v-9.928q-24.254,21.324-35.644,21.322-11.072,0-11.068-12.045a22.786,22.786,0,0,1,3.174-12.369q3.174-5.043,11.067-15.707T921,111.69a12.629,12.629,0,0,0-.976-4.476q-0.976-2.522-2.767-6.592t-2.93-6.673a45.383,45.383,0,0,0,7.975-3.337,4.684,4.684,0,0,0,2.279-4.313,15.374,15.374,0,0,0-1.709-5.534,21.654,21.654,0,0,0-4.639-6.592,8.983,8.983,0,0,0-6.347-2.848q-12.7,0-35.97,10.905T827.9,115.6A145.024,145.024,0,0,0,814.393,129.757Zm57.455,11.962a127.841,127.841,0,0,1-31.25,26.286q-4.558,2.282-6.348,2.279-3.093,0-4.883-3.337a17.958,17.958,0,0,1-1.79-8.545q0-14.32,17.985-27.832t60.3-32.877Q886.005,125.524,871.848,141.719Zm99.935-21.077q3.417-.648,9.765-1.79t12.044-2.2q5.7-1.056,10.258-2.034A237.908,237.908,0,0,0,988.3,135.535a110.518,110.518,0,0,0-10.5,19.449q-3.582,8.953-3.581,15.951,0,11.883,4.557,18.148t11.393,6.266q5.861,0,13.346-4.8a119.492,119.492,0,0,0,16.28-12.94q8.79-8.136,22.3-22.3v-10.9q-24.585,20.184-34.51,20.182-9.435,0-9.44-7.649,0-5.532,5.86-16.439a97.1,97.1,0,0,1,14.48-20.183,146.785,146.785,0,0,0,10.34-11.637q3.015-3.987,3.01-7.406a33.892,33.892,0,0,0-1.79-10.742q-1.785-5.371-4.56-6.836a11.775,11.775,0,0,0-4.72-.651q-8.79,0-42.314,5.208,5.043-8.461,5.045-11.231,0-3.09-3.255-3.092a9.829,9.829,0,0,0-4.394,1.139q-5.86,2.281-13.021,10.091a85.035,85.035,0,0,0-12.045,16.764q-4.883,8.953-4.882,14.812,0,5.211,2.36,7.812t7.568,4.4a159.967,159.967,0,0,1-13.346,17.741v10.579q19.2-16.437,29.3-36.621h0Zm140.137,58.105q0,11.559,3.34,17.416t10.98,5.859q19.05,0,54.2-45.41V144.73q-15.945,15.138-24.58,21.566t-14.32,6.429q-9.435,0-9.44-14.648,0-16.113,8.63-35.075a348.216,348.216,0,0,1,20.67-38.493q12.045-19.531,24.41-40.12t12.37-29.053a11.772,11.772,0,0,0-3.01-7.894q-3.015-3.5-6.59-3.5-3.255,0-10.91,9.928t-18.96,30.273q-11.31,20.348-23.84,46.55-7.65-10.09-15.63-10.091-9.765,0-29.29,10.579a139.953,139.953,0,0,0-34.83,26.612q-15.3,16.032-15.3,31.819a63.865,63.865,0,0,0,3.74,21.485,62.269,62.269,0,0,0,9.03,17.415q5.295,6.835,9.52,6.836,2.61,0,9.69-5.615a224.562,224.562,0,0,0,18.39-17.009q11.31-11.391,25.64-27.669a159.613,159.613,0,0,0-3.91,33.691h0Zm11.56-60.953a48.053,48.053,0,0,1-7.49,10.172q-4.4,4.558-13.92,12.614t-12.29,10.5q-1.95,1.629-8.38,7.324a101.388,101.388,0,0,1-9.36,7.65,9.736,9.736,0,0,1-5.21,1.953,5.251,5.251,0,0,1-4.06-1.79,6.49,6.49,0,0,1-1.63-4.557q0-4.555,2.76-13.51t6.35-12.207q4.065-4.067,23.6-14.892t34.02-15.707A41.959,41.959,0,0,1,1123.48,117.794ZM1245.14,131.3q15.7-10.01,23.35-20.183t7.65-20.426q0-7-4.47-10.5-4.485-3.5-12.13-3.5-9.6,0-21.81,5.371a100.58,100.58,0,0,0-24.57,15.95q-18.075,15.465-26.05,29.378a61.305,61.305,0,0,0-7.97,31.006q0,19.532,8.46,30.762t22.95,11.231q16.6,0,32.72-11.8t34.5-33.935V144.73q-12.21,10.419-20.67,16.6a90.056,90.056,0,0,1-17.01,9.928A41,41,0,0,1,1223.57,175a15.682,15.682,0,0,1-12.37-5.371q-4.725-5.372-4.72-14.974V150.59Q1229.43,141.313,1245.14,131.3Zm-30.03-9.033a71.98,71.98,0,0,1,12.12-14.161,79.178,79.178,0,0,1,13.35-9.765q6.6-3.742,9.52-3.743,3.42,0,3.42,3.743,0,3.582-4.96,11.312t-15.38,16.194a92.678,92.678,0,0,1-25.07,14.16A45.69,45.69,0,0,1,1215.11,122.27Zm179.36-17.9a43.372,43.372,0,0,0-2.52-14.486q-2.52-7.16-5.13-7.161-5.7,0-14.32,6.022a226.211,226.211,0,0,0-27.59,21.322,266.483,266.483,0,0,0-21,21.24q-8.865,10.173-14.48,16.439t-7.57,6.266q-3.09,0-3.09-4.72,0-8.462,25.71-36.947,3.915-4.23,5.13-5.7a19.58,19.58,0,0,0,2.2-3.256,7.163,7.163,0,0,0,.98-3.418,5.929,5.929,0,0,0-3.18-5.534,17,17,0,0,0-8.38-1.79q-7.485,0-15.63,8.057-8.13,8.057-19.36,25.309-6.03,9.278-8.06,14.323t-2.04,14q0,14.488,4.4,25.391t9.6,10.905q3.42,0,6.76-3.337a138.529,138.529,0,0,0,10.58-13.021q7.23-9.681,13.59-17.578a181.171,181.171,0,0,1,15.46-16.683q13.995-13.995,23.27-18.717-7.65,12.86-13.51,23.031t-8.7,15.625a67.182,67.182,0,0,0-4.48,10.5,33.067,33.067,0,0,0-1.63,10.254q0,17.577,13.35,17.578,7.815,0,20.18-10.091t35.48-32.878V144.079q-16.11,12.7-23.68,17.66t-12.29,4.964q-5.7,0-5.69-7,0-12.531,28.64-44.433,7.005-7.324,7-10.9h0Z" transform="translate(-0.969 -0.031)"/>
  <path id="golden" class="cls-2" d="M132,145.052L92.611,173.7q15.461-32.387,21.4-46.631t5.94-21.728A8.059,8.059,0,0,0,117.92,99.4a7.164,7.164,0,0,0-5.29-2.035q-5.7,0-12.776,7.081a268.818,268.818,0,0,0-17.9,20.507Q71.124,138.379,64.616,144.4q-14.324,13.183-21.647,18.392T29.948,168a6.784,6.784,0,0,1-5.534-2.6,10.761,10.761,0,0,1-2.116-7q0-8.951,8.382-20.1A103.676,103.676,0,0,1,52.653,117.22a144.18,144.18,0,0,1,27.425-15.95Q102.7,91.18,102.7,80.6q0-7.648-10.417-7.65-14,0-39.225,15.788A176.527,176.527,0,0,0,29.785,105.42,123.146,123.146,0,0,0,13.428,122.1a67.34,67.34,0,0,0-9.44,15.3A35.249,35.249,0,0,0,.977,151.074a57.74,57.74,0,0,0,7,27.263q7,13.267,15.3,13.265,7.649,0,17.171-5.616a129.351,129.351,0,0,0,20.915-16.031q11.391-10.415,26.693-26.693-7.164,17.578-23.437,50.781-3.258,2.769-12.207,10.173T38,216.585a160.582,160.582,0,0,0-11.556,11.8,120.882,120.882,0,0,0-10.824,14Q3.742,260.609,3.743,272.331q0,6.019,4.883,6.022,9.113,0,27.832-19.45t41.5-58.838L132,155.632v-10.58Zm94.238,6.267a35.993,35.993,0,0,1-4.8,2.929,11.787,11.787,0,0,1-5.453,1.384h-2.441l-2.93-2.93a98.284,98.284,0,0,0,10.01-22.3q3.661-11.88,3.662-19.694,0-7.972-2.279-10.986t-8.463-4.313q3.741-4.23,3.743-7.487,0-4.23-4.394-6.592t-12.045-2.36q-10.742,0-23.274,6.755a101.158,101.158,0,0,0-23.519,17.741,103.528,103.528,0,0,0-17.9,23.682q-6.919,12.695-6.917,23.112a58.334,58.334,0,0,0,4.476,23.274,41.669,41.669,0,0,0,11.963,16.439,25.842,25.842,0,0,0,16.6,6.022q16.113,0,37.272-25.065,12.207,0.653,18.718-2.6t17.252-13.021V144.4Q228.35,149.772,226.237,151.319Zm-36.784-25.228a56.4,56.4,0,0,0-4.232,20.914,42.993,42.993,0,0,0,2.767,14.649Q171.546,173.7,164.551,173.7q-14.977,0-14.974-10.742,0-1.465,4.069-19.694,2.277-6.835,8.952-13.591a111.641,111.641,0,0,1,16.276-13.346q9.6-6.591,23.112-14.73A172.9,172.9,0,0,0,189.453,126.091Zm103.19,35.563a88.7,88.7,0,0,1-9.928,7.894q-4.724,3.174-8.789,3.174a14.276,14.276,0,0,1-12.451-6.511Q257,159.7,257,149.284a74.393,74.393,0,0,1,1.627-13.021q32.876-34.339,51.27-67.3t18.392-55.583q0-7.324-1.14-10.335A4.429,4.429,0,0,0,322.591.033q-2.769,0-7.65,2.93-12.046,7-26.123,24.5a292.2,292.2,0,0,0-27.181,41.016,284.678,284.678,0,0,0-20.914,46.387q-7.814,22.869-7.813,39.47,0,20.506,6.592,33.121t18.148,12.614q21.32,0,55.338-45.084V142.936Q297.852,156.937,292.643,161.654ZM281.9,65.869q12.368-23.682,22.3-31.82,2.766-1.789,3.744-1.79,2.6,0,2.6,3.743,0,4.883-3.988,14.486a186,186,0,0,1-10.986,21.647A236.348,236.348,0,0,1,280.68,94.759a162.448,162.448,0,0,1-16.357,18.88A189.55,189.55,0,0,1,281.9,65.869ZM382,178.744q0,11.558,3.336,17.415t10.987,5.859q19.043,0,54.2-45.41V144.727q-15.954,15.137-24.577,21.565t-14.323,6.43q-9.441,0-9.44-14.649,0-16.113,8.626-35.075a348.058,348.058,0,0,1,20.671-38.493q12.043-19.531,24.414-40.12t12.37-29.053a11.793,11.793,0,0,0-3.011-7.894q-3.013-3.5-6.592-3.5-3.258,0-10.9,9.928T428.792,44.141Q417.478,64.488,404.948,90.69,397.3,80.6,389.323,80.6q-9.765,0-29.3,10.579A140.108,140.108,0,0,0,325.2,117.79q-15.3,16.034-15.3,31.82a63.941,63.941,0,0,0,3.743,21.484,62.179,62.179,0,0,0,9.034,17.415q5.286,6.837,9.521,6.836,2.6,0,9.684-5.615a225.159,225.159,0,0,0,18.392-17.008q11.312-11.391,25.635-27.67A160,160,0,0,0,382,178.744h0Zm11.556-60.954a47.834,47.834,0,0,1-7.487,10.172q-4.395,4.558-13.916,12.614t-12.289,10.5q-1.953,1.629-8.382,7.325a102.081,102.081,0,0,1-9.359,7.649A9.745,9.745,0,0,1,336.914,168a5.262,5.262,0,0,1-4.069-1.79,6.507,6.507,0,0,1-1.628-4.557q0-4.555,2.767-13.509t6.348-12.207q4.067-4.066,23.6-14.893t34.017-15.706A41.968,41.968,0,0,1,393.555,117.79ZM515.218,131.3q15.705-10.01,23.356-20.182t7.65-20.427q0-7-4.476-10.5t-12.126-3.5q-9.6,0-21.809,5.371a100.536,100.536,0,0,0-24.577,15.951q-18.067,15.464-26.042,29.379a61.223,61.223,0,0,0-7.975,31.006q0,19.53,8.463,30.761t22.95,11.231q16.6,0,32.714-11.8t34.506-33.936v-9.928q-12.207,10.417-20.671,16.6a90.323,90.323,0,0,1-17.008,9.929A41.062,41.062,0,0,1,493.652,175a15.672,15.672,0,0,1-12.369-5.371q-4.724-5.371-4.72-14.974v-4.069Q499.512,141.309,515.218,131.3Zm-30.029-9.033a71.9,71.9,0,0,1,12.125-14.16,78.641,78.641,0,0,1,13.347-9.766q6.591-3.742,9.521-3.743,3.418,0,3.418,3.743,0,3.582-4.964,11.312t-15.381,16.195a92.657,92.657,0,0,1-25.065,14.16A45.723,45.723,0,0,1,485.189,122.266Zm179.362-17.9a43.35,43.35,0,0,0-2.523-14.486q-2.526-7.16-5.127-7.161-5.7,0-14.323,6.022a226.348,226.348,0,0,0-27.588,21.322,264.529,264.529,0,0,0-21,21.24q-8.873,10.174-14.486,16.439T571.94,154q-3.093,0-3.092-4.72,0-8.461,25.716-36.947,3.906-4.23,5.127-5.7a20.04,20.04,0,0,0,2.2-3.255,7.149,7.149,0,0,0,.977-3.418,5.93,5.93,0,0,0-3.174-5.534,17.02,17.02,0,0,0-8.382-1.79q-7.489,0-15.625,8.057t-19.369,25.309q-6.023,9.277-8.057,14.323t-2.034,14q0,14.487,4.395,25.39t9.6,10.905q3.418,0,6.755-3.336a138.048,138.048,0,0,0,10.579-13.021q7.24-9.683,13.591-17.578a181.517,181.517,0,0,1,15.462-16.683q14-14,23.275-18.718-7.653,12.859-13.509,23.031t-8.708,15.625a67.431,67.431,0,0,0-4.476,10.5,33.182,33.182,0,0,0-1.627,10.254q0,17.578,13.346,17.578,7.812,0,20.182-10.091t35.482-32.878v-11.23q-16.113,12.694-23.682,17.659T634.6,166.7q-5.7,0-5.7-7,0-12.532,28.646-44.434,7-7.324,7-10.9h0Z" transform="translate(-0.969 -0.031)"/>
</svg>
